<?xml version="1.0" encoding="UTF-8" standalone="no"?>
<!DOCTYPE svg PUBLIC "-//W3C//DTD SVG 1.1//EN" "http://www.w3.org/Graphics/SVG/1.1/DTD/svg11.dtd">
<svg width="100%" height="100%" viewBox="0 0 1518 782" version="1.1" xmlns="http://www.w3.org/2000/svg" xmlns:xlink="http://www.w3.org/1999/xlink" xml:space="preserve" xmlns:serif="http://www.serif.com/" style="fill-rule:evenodd;clip-rule:evenodd;stroke-linecap:round;stroke-linejoin:round;stroke-miterlimit:1.5;">
    <g transform="matrix(1,0,0,1,-151.866916,-549.381333)">
        <g transform="matrix(0.967146,0,0,0.92381,132.758426,154.971403)">
            <path d="M1184.997,426.939C1292.135,426.939 1394.884,471.495 1470.641,550.806C1546.398,630.117 1588.958,737.686 1588.958,849.849L1588.958,849.849C1588.958,1083.417 1408.099,1272.76 1184.997,1272.76L423.718,1272.76C316.581,1272.76 213.832,1228.204 138.075,1148.893C62.318,1069.581 19.758,962.012 19.758,849.849L19.758,849.849C19.758,616.282 200.617,426.939 423.718,426.939L1184.997,426.939Z" style="fill:rgb(33,40,48);"/>
        </g>
        <g transform="matrix(1,0,0,1,35.86291,15.259058)">
            <g transform="matrix(0,0.779541,-0.743349,0,965.330957,69.959022)">
                <path d="M1198.027,758.012C1198.015,846.472 1198.365,846.496 1197.736,852.165C1196.62,862.215 1192.42,870.956 1186.787,877.461C1131.397,941.423 1131.559,941.591 1128.225,944.834C1114.455,958.23 1094.077,960.732 1077.825,951.349C894.233,845.355 894.012,845.722 889.067,842.006C877.603,833.39 870.951,819.534 870.951,805.049C870.945,589.119 870.512,589.09 871.255,582.547C873.139,565.948 883.148,553.995 893.097,548.25C907.97,539.662 1078.06,441.445 1079.026,440.929C1096.56,431.562 1117.787,435.81 1130.817,450.855C1186.245,514.855 1186.401,514.718 1189.017,518.282C1195.188,526.687 1198.026,536.613 1198.027,545.994C1198.028,575.64 1198.108,605.287 1198.027,634.933C1198.004,643.104 1192.944,647.573 1192.081,648.334C1188.664,651.352 1184.947,652.051 1184.267,652.178C1182.001,652.604 1181.987,652.386 1179.688,652.486C1151.732,653.695 1133.141,682.309 1141.229,709.556C1146.302,726.644 1161.55,740.304 1181.046,740.49C1184.367,740.522 1186.613,741.386 1187.072,741.562C1187.929,741.892 1192.769,743.753 1195.797,749.267C1196.77,751.039 1196.963,751.795 1197.023,752.031C1197.773,754.97 1197.276,755.068 1198.027,758.012ZM1164.615,773.57C1153.981,771.037 1140.032,765.197 1127.384,751.694C1097.409,719.693 1098.724,666.558 1132.327,636.395C1143.568,626.306 1155.367,621.586 1164.617,619.375C1164.666,546.42 1165.071,546.149 1164.199,543.067C1164.101,542.718 1163.551,540.777 1162.096,539.096C1106.567,474.959 1106.731,474.777 1104.937,473.292C1101.31,470.29 1096.866,470.604 1093.999,472.26C909.966,578.504 909.731,578.179 907.624,580.193C905.853,581.886 904.365,584.576 904.365,587.97C904.362,804.549 904.032,804.596 904.604,807.289C905.418,811.119 907.99,813.292 909.386,814.097C1093.167,920.22 1092.883,921.306 1097.588,921.863C1100.182,922.17 1103.561,921.441 1106.141,918.461C1161.716,854.293 1162.019,854.513 1163.359,851.977C1163.781,851.18 1164.111,850.299 1164.32,849.414C1164.929,846.833 1164.647,846.628 1164.615,773.57Z" style="fill:white;"/>
            </g>
            <g transform="matrix(1,0,0,1,-98.234182,560.385094)">
                <path d="M479.725,248.116L420.204,356.229" style="fill:none;stroke:white;stroke-width:26.05px;"/>
            </g>
            <g transform="matrix(-0.482286,-0.876014,0.876014,-0.482286,399.913276,1591.625663)">
                <path d="M479.725,248.116L420.204,356.229" style="fill:none;stroke:white;stroke-width:26.05px;"/>
            </g>
            <g transform="matrix(-1,0,0,1,993.968793,560.385094)">
                <path d="M479.725,248.116L420.204,356.229" style="fill:none;stroke:white;stroke-width:26.05px;"/>
            </g>
            <g transform="matrix(0.985633,0,0,0.79447,-96.590788,644.885337)">
                <path d="M389.091,489.49C387.742,487.48 379.654,476.197 380.872,457.947C382.295,436.624 396.882,419.068 415.039,419.067C693.651,419.06 693.726,418.197 700.499,419.696C723.53,424.794 735.814,455.887 724.948,481.596C723.176,485.788 720.999,488.911 720.595,489.49C672.745,558.106 672.849,558.226 670.506,561.159C663.815,569.533 654.9,573.762 646.173,573.762C585.72,573.764 463.223,573.781 462.161,573.727C449.72,573.099 441.402,564.485 437.908,559.477C421.633,536.15 405.366,512.816 389.091,489.49ZM409.116,468.093C457.387,537.291 457.089,537.756 459.439,539.537C461.346,540.983 463.169,540.975 463.603,540.975C605.173,540.985 646.417,540.975 646.77,540.943C649.968,540.647 651.815,537.998 652.13,537.546C700.274,468.525 700.568,468.76 701.693,466.009C704.197,459.888 700.758,452.125 694.909,451.861C694.424,451.839 414.821,451.852 414.561,451.874C408.136,452.418 404.916,461.699 408.955,467.857C409.008,467.937 409.063,468.013 409.116,468.093Z" style="fill:white;"/>
            </g>
            <g transform="matrix(1,0,0,1,-107.234182,555.385094)">
                <path d="M509.098,435.461C509.098,410.213 529.596,389.715 554.843,389.715C580.091,389.715 600.589,410.213 600.589,435.461L509.098,435.461Z" style="fill:none;stroke:white;stroke-width:26.05px;"/>
            </g>
            <g transform="matrix(0.755797,0,0,0.755797,262.47005,368.101732)">
                <path d="M561.552,874.016L561.552,687.935L586.811,687.935L684.548,834.033L684.548,687.935L708.157,687.935L708.157,874.016L682.898,874.016L585.161,727.791L585.161,874.016L561.552,874.016Z" style="fill:white;fill-rule:nonzero;"/>
                <path d="M738.113,806.615C738.113,781.652 745.052,763.163 758.929,751.147C770.522,741.161 784.654,736.169 801.324,736.169C819.856,736.169 835.003,742.24 846.766,754.383C858.528,766.526 864.409,783.302 864.409,804.711C864.409,822.059 861.807,835.704 856.603,845.647C851.398,855.59 843.825,863.311 833.882,868.812C823.939,874.312 813.086,877.062 801.324,877.062C782.454,877.062 767.201,871.012 755.566,858.911C743.93,846.81 738.113,829.378 738.113,806.615ZM761.595,806.615C761.595,823.878 765.36,836.804 772.892,845.393C780.423,853.982 789.9,858.276 801.324,858.276C812.663,858.276 822.099,853.961 829.63,845.329C837.161,836.698 840.927,823.54 840.927,805.854C840.927,789.184 837.14,776.554 829.566,767.965C821.993,759.376 812.579,755.081 801.324,755.081C789.9,755.081 780.423,759.355 772.892,767.901C765.36,776.448 761.595,789.353 761.595,806.615Z" style="fill:white;fill-rule:nonzero;"/>
                <path d="M1026.881,808.773L1051.505,814.993C1046.343,835.217 1037.056,850.639 1023.644,861.259C1010.231,871.879 993.836,877.189 974.458,877.189C954.403,877.189 938.092,873.106 925.526,864.94C912.96,856.774 903.398,844.949 896.84,829.463C890.282,813.977 887.003,797.349 887.003,779.579C887.003,760.201 890.705,743.298 898.109,728.87C905.513,714.442 916.049,703.484 929.715,695.995C943.381,688.506 958.422,684.762 974.839,684.762C993.455,684.762 1009.11,689.5 1021.803,698.978C1034.496,708.455 1043.339,721.783 1048.332,738.961L1024.088,744.673C1019.772,731.134 1013.51,721.276 1005.302,715.098C997.094,708.921 986.77,705.832 974.331,705.832C960.03,705.832 948.078,709.259 938.473,716.114C928.869,722.968 922.12,732.17 918.228,743.721C914.335,755.272 912.389,767.182 912.389,779.452C912.389,795.276 914.695,809.091 919.307,820.895C923.918,832.7 931.09,841.521 940.821,847.36C950.553,853.199 961.088,856.118 972.427,856.118C986.22,856.118 997.898,852.141 1007.46,844.187C1017.022,836.233 1023.496,824.428 1026.881,808.773Z" style="fill:white;fill-rule:nonzero;"/>
                <rect x="1078.414" y="687.935" width="22.848" height="186.081" style="fill:white;fill-rule:nonzero;"/>
                <path d="M1224.639,857.388C1216.177,864.581 1208.032,869.658 1200.205,872.62C1192.377,875.581 1183.979,877.062 1175.009,877.062C1160.2,877.062 1148.819,873.445 1140.864,866.209C1132.91,858.974 1128.933,849.73 1128.933,838.475C1128.933,831.875 1130.435,825.845 1133.439,820.387C1136.443,814.929 1140.378,810.55 1145.244,807.25C1150.109,803.95 1155.588,801.454 1161.681,799.761C1166.166,798.576 1172.936,797.434 1181.99,796.334C1200.437,794.134 1214.019,791.511 1222.735,788.464C1222.82,785.333 1222.862,783.345 1222.862,782.499C1222.862,773.19 1220.704,766.632 1216.388,762.824C1210.55,757.662 1201.876,755.081 1190.368,755.081C1179.621,755.081 1171.688,756.964 1166.568,760.73C1161.448,764.496 1157.662,771.159 1155.208,780.722L1132.868,777.675C1134.899,768.113 1138.241,760.391 1142.895,754.51C1147.55,748.629 1154.277,744.102 1163.077,740.929C1171.878,737.755 1182.075,736.169 1193.668,736.169C1205.176,736.169 1214.527,737.523 1221.72,740.231C1228.912,742.938 1234.201,746.344 1237.586,750.448C1240.971,754.553 1243.34,759.736 1244.694,765.998C1245.456,769.89 1245.836,776.914 1245.836,787.068L1245.836,817.531C1245.836,838.771 1246.323,852.205 1247.296,857.832C1248.269,863.459 1250.194,868.854 1253.071,874.016L1229.208,874.016C1226.839,869.277 1225.316,863.734 1224.639,857.388ZM1222.735,806.362C1214.442,809.746 1202.003,812.623 1185.417,814.993C1176.024,816.347 1169.382,817.87 1165.489,819.562C1161.597,821.255 1158.593,823.73 1156.477,826.988C1154.361,830.246 1153.304,833.863 1153.304,837.84C1153.304,843.933 1155.61,849.01 1160.221,853.072C1164.833,857.134 1171.582,859.165 1180.467,859.165C1189.267,859.165 1197.095,857.24 1203.949,853.389C1210.803,849.539 1215.838,844.272 1219.054,837.587C1221.508,832.425 1222.735,824.809 1222.735,814.739L1222.735,806.362Z" style="fill:white;fill-rule:nonzero;"/>
                <path d="M1283.408,874.016L1283.408,687.935L1320.472,687.935L1364.517,819.689C1368.579,831.959 1371.54,841.141 1373.402,847.233C1375.517,840.464 1378.818,830.521 1383.303,817.405L1427.855,687.935L1460.984,687.935L1460.984,874.016L1437.248,874.016L1437.248,718.271L1383.176,874.016L1360.963,874.016L1307.144,715.606L1307.144,874.016L1283.408,874.016Z" style="fill:white;fill-rule:nonzero;"/>
                <path d="M1590.073,830.605L1613.682,833.525C1609.959,847.318 1603.062,858.022 1592.993,865.638C1582.923,873.254 1570.06,877.062 1554.406,877.062C1534.689,877.062 1519.055,870.991 1507.505,858.848C1495.954,846.704 1490.178,829.675 1490.178,807.758C1490.178,785.079 1496.017,767.478 1507.695,754.955C1519.373,742.431 1534.52,736.169 1553.136,736.169C1571.16,736.169 1585.884,742.304 1597.308,754.574C1608.732,766.844 1614.444,784.106 1614.444,806.362C1614.444,807.715 1614.402,809.746 1614.317,812.454L1513.788,812.454C1514.634,827.263 1518.823,838.602 1526.354,846.472C1533.885,854.341 1543.278,858.276 1554.532,858.276C1562.91,858.276 1570.06,856.076 1575.984,851.676C1581.907,847.276 1586.604,840.252 1590.073,830.605ZM1515.057,793.668L1590.327,793.668C1589.312,782.329 1586.434,773.825 1581.696,768.155C1574.418,759.355 1564.983,754.955 1553.39,754.955C1542.897,754.955 1534.075,758.466 1526.925,765.49C1519.775,772.513 1515.818,781.906 1515.057,793.668Z" style="fill:white;fill-rule:nonzero;"/>
            </g>
        </g>
    </g>
</svg>
